<svg viewBox="0 0 64 64" xmlns="http://www.w3.org/2000/svg"><symbol viewBox="0 0 64 64" id="shape-shape_article"><title>shape_article</title><style>.s0{fill:none;stroke-width:1;}.s1{fill:#245299;stroke:#245299;}</style><metadata id="svgstore76e7004dca919f4945e26c43a39fb74fmetadata3023"/><path id="svgstore76e7004dca919f4945e26c43a39fb74fpath3816" d="m7.6949155 4.0338984a3.5762713 3.5254238 0 1 1-7.15254256 0 3.5762713 3.5254238 0 1 1 7.15254256 0zM-6.0000002 2.5084746 -6.0000002 2.5084746a2.8135593 1.9661016 0 1 1-5.6271188 0 2.8135593 1.9661016 0 1 1 5.6271188 0zM-4.7457628 4.3559322a2.2542372 1.6440678 0 1 1-4.5084744 0 2.2542372 1.6440678 0 1 1 4.5084744 0zM-5.6610172 3.9661016a3.1525424 2.3728814 0 1 1-6.3050848 0 3.1525424 2.3728814 0 1 1 6.3050848 0zM-7.2542372 0.779661a5.3559322 4.7118645 0 1 1-10.7118648 0 5.3559322 4.7118645 0 1 1 10.7118648 0z" transform="translate(0,56)" class="s0"/><rect id="svgstore76e7004dca919f4945e26c43a39fb74frect3835" width="61.935226" height="61.935223" x="1.0323879" y="1.0323893" style="fill:none;stroke-dasharray:2.1;stroke-width:2.1;stroke:#808080"/><g transform="scale(1.0319996,0.96899262)" id="svgstore76e7004dca919f4945e26c43a39fb74ftext8154" style="fill:#245299;font-family:Sans;font-size:36.1;letter-spacing:0;line-height:125;stroke-width:0.9;stroke:#245299;word-spacing:0"><path d="m23.544878 41.24466c-1.173621 0.997569-2.303218 1.701733-3.388793 2.112495-1.085598 0.410763-2.250403 0.616144-3.494419 0.616144-2.053819 0-3.632321-0.501717-4.735508-1.505152-1.103194-1.003433-1.654789-2.285599-1.654788-3.846501-0.000001-0.915408 0.208314-1.751603 0.624946-2.508587 0.416629-0.756969 0.962356-1.364311 1.637184-1.822027 0.67482-0.457697 1.434731-0.803911 2.279734-1.038643 0.622005-0.164295 1.560891-0.322732 2.816659-0.475311 2.558455-0.305127 4.442094-0.668945 5.650923-1.091456 0.01172-0.434223 0.01759-0.71002 0.0176-0.827394-0.000014-1.290955-0.299284-2.2005-0.89781-2.728638-0.809802-0.715885-2.012749-1.073835-3.608845-1.073852-1.49049 0.000017-2.590747 0.261144-3.300773 0.783383-0.710038 0.522271-1.235228 1.446487-1.575569 2.77265l-3.098325-0.422499c0.281664-1.326163 0.745238-2.397079 1.390726-3.212752 0.64548-0.815641 1.578498-1.44352 2.799055-1.883642 1.220545-0.440084 2.634742-0.660135 4.242593-0.660154 1.596096 0.000019 2.892931 0.187796 3.890511 0.563332 0.997552 0.375573 1.731056 0.847949 2.200516 1.417132 0.469426 0.569216 0.798036 1.28805 0.98583 2.156505 0.105608 0.539874 0.15842 1.513968 0.158437 2.922284l0 4.224989c-0.000017 2.945761 0.06746 4.808862 0.202448 5.589309 0.134947 0.780451 0.401943 1.528625 0.800987 2.244525l-3.309575 0c-0.328625-0.65722-0.539874-1.425932-0.633748-2.30614zm-0.264062-7.076857c-1.150149 0.469452-2.875351 0.868479-5.175612 1.197081-1.302712 0.187785-2.223994 0.399034-2.763847 0.633748-0.539865 0.234729-0.956496 0.578009-1.249892 1.029841-0.293407 0.451845-0.440108 0.953562-0.440103 1.505153-0.000005 0.845002 0.319803 1.549166 0.959424 2.112494 0.63961 0.563334 1.575562 0.845 2.807858 0.844998 1.220542 0.000002 2.306129-0.266993 3.256762-0.800987 0.95061-0.533989 1.648906-1.264559 2.094891-2.191714 0.340332-0.715895 0.510505-1.772141 0.510519-3.168742zM31.378712 43.5508l0-18.695577 2.851868 0 0 2.834263M31.378712 43.5508l0-18.695577 2.851868 0 0 2.834263c0.727631-1.32616 1.399521-2.200497 2.015672-2.623014 0.616136-0.42248 1.293894-0.633729 2.033276-0.633748 1.067973 0.000019 2.15356 0.340365 3.256763 1.021039l-1.091456 2.939888c-0.774592-0.457691-1.549173-0.686545-2.323744-0.68656-0.692437 0.000015-1.314449 0.208331-1.866037 0.624946-0.551602 0.416646-0.944761 0.994647-1.179476 1.734006-0.352088 1.126676-0.528129 2.358963-0.528124 3.696866l0 9.787891zM50.373558 40.716537l0.457707 2.799055c-0.891951 0.187777-1.690003 0.281666-2.39416 0.281666-1.150142 0-2.042084-0.181909-2.675827-0.545728-0.633752-0.363818-1.079723-0.842062-1.337913-1.434736-0.258197-0.592669-0.387294-1.839627-0.387291-3.740876l0-10.756118-2.323744 0 0-2.464577 2.323744 0 0-4.629884 3.151138-1.901245 0 6.531129 3.186346 0 0 2.464577-3.186346 0 0 10.93216c-0.000006 0.903682 0.05574 1.484618 0.167239 1.742808 0.111487 0.258197 0.293396 0.463578 0.545728 0.616144 0.252319 0.152572 0.613203 0.228856 1.082654 0.228854 0.352074 0.000002 0.815648-0.04107 1.390725-0.123229z" id="svgstore76e7004dca919f4945e26c43a39fb74fpath8167" class="s1"/></g></symbol><symbol viewBox="0 0 64 64" id="shape-shape_body"><title>shape_body</title><style>.s0{fill:none;stroke-width:1;}</style><metadata id="svgstore33dbe2d9d04cb6277bf2f6f04d809a76metadata3023"/><path id="svgstore33dbe2d9d04cb6277bf2f6f04d809a76path3816" d="m7.6949155 4.0338984a3.5762713 3.5254238 0 1 1-7.15254256 0 3.5762713 3.5254238 0 1 1 7.15254256 0zM-6.0000002 2.5084746a2.8135593 1.9661016 0 1 1-5.6271188 0 2.8135593 1.9661016 0 1 1 5.6271188 0zM-4.7457628 4.3559322a2.2542372 1.6440678 0 1 1-4.5084744 0 2.2542372 1.6440678 0 1 1 4.5084744 0zM-5.6610172 3.9661016a3.1525424 2.3728814 0 1 1-6.3050848 0 3.1525424 2.3728814 0 1 1 6.3050848 0zM-7.2542372 0.779661a5.3559322 4.7118645 0 1 1-10.7118648 0 5.3559322 4.7118645 0 1 1 10.7118648 0z" transform="translate(0,56)" class="s0"/><rect id="svgstore33dbe2d9d04cb6277bf2f6f04d809a76rect3835" width="61.935226" height="61.935223" x="1.0323879" y="1.0323893" style="fill:none;stroke-dasharray:2.1;stroke-width:2.1;stroke:#808080"/><g id="svgstore33dbe2d9d04cb6277bf2f6f04d809a76text8097" style="fill:#245299;font-family:Sans;font-size:34.7;letter-spacing:0;line-height:125;stroke-width:1;stroke:#245299;word-spacing:0"><path d="m9.0595006 42.313766-2.8313695 0 0-24.855016 3.0517755 0 0 8.867104c1.2885204-1.616293 2.9330874-2.424448 4.9337034-2.424466 1.10767 0.000018 2.156011 0.223249 3.145025 0.669695 0.988986 0.446481 1.802792 1.073789 2.44142 1.881928 0.638596 0.80817 1.138747 1.783042 1.500456 2.924618 0.361674 1.141602 0.54252 2.362311 0.542538 3.662131-0.000018 3.08569-0.762961 5.470594-2.288832 7.154718-1.525901 1.684128-3.356965 2.526191-5.493195 2.526192-2.124948-0.000001-3.79212-0.887275-5.0015214-2.661827zM9.025592 33.175394c-0.0000051 2.158856 0.2938693 3.718651 0.881624 4.679389 0.960737 1.571103 2.260566 2.356651 3.899491 2.356649 1.333728 0.000002 2.486619-0.579269 3.458679-1.737816 0.972033-1.15854 1.458056-2.885052 1.45807-5.179542-0.000014-2.350986-0.466257-4.085975-1.39873-5.204972-0.932499-1.118969-2.05996-1.678461-3.382385-1.678477-1.333747 0.000016-2.486639 0.579288-3.458679 1.737817-0.9720521 1.158557-1.4580751 2.834206-1.45807 5.026952zM37.254515 42.313766l0-2.271877c-1.141603 1.785854-2.820078 2.67878-5.035429 2.678781-1.435473-0.000001-2.755082-0.395601-3.958831-1.186802-1.20376-0.791199-2.136246-1.896054-2.797461-3.314567-0.66122-1.418505-0.991828-3.048943-0.991827-4.891318-0.000001-1.797146 0.299524-3.427584 0.898578-4.891318 0.59905-1.463707 1.497627-2.585515 2.695735-3.36543 1.198099-0.77988 2.537488-1.169829 4.018171-1.169847 1.085066 0.000018 2.051461 0.228901 2.899187 0.686649 0.847703 0.457784 1.537177 1.05401 2.068426 1.78868l0-8.917967 3.034821 0 0 24.855016zm-9.647001-8.985783c-0.000005 2.305793 0.486018 4.029479 1.45807 5.171064 0.972041 1.141593 2.119281 1.712387 3.441725 1.712385 1.333728 0.000002 2.46684-0.545361 3.399339-1.636091 0.932473-1.090722 1.398716-2.755068 1.39873-4.993043-0.000014-2.464015-0.474734-4.272473-1.424162-5.425379-0.949453-1.152878-2.119299-1.729324-3.509542-1.729339-1.356352 0.000015-2.489464 0.553856-3.399338 1.661522-0.909886 1.107694-1.364827 2.853986-1.364822 5.238881zM44.765274 49.248079 44.426188 46.3828c0.666866 0.180842 1.248964 0.271265 1.746293 0.271269 0.678168-0.000004 1.220706-0.113033 1.627614-0.339086 0.406898-0.226061 0.740332-0.542541 1.000304-0.949441 0.192143-0.30518 0.502971-1.062472 0.932487-2.271877 0.05651-0.169544 0.14693-0.418207 0.271269-0.74599l-6.832586-18.039384 3.289136 0 3.746902 10.4269c0.486015 1.322442 0.921175 2.712694 1.305481 4.170759 0.35038-1.401551 0.768586-2.769197 1.254619-4.102942l3.848628-10.494717 3.051776 0-6.849541 18.310653c-0.734696 1.978-1.30549 3.339995-1.712385 4.085988-0.542546 1.005951-1.164203 1.743462-1.864974 2.212538-0.700784 0.469062-1.537196 0.703596-2.509238 0.703603-0.587752-0.000007-1.243318-0.124338-1.966699-0.372994z" id="svgstore33dbe2d9d04cb6277bf2f6f04d809a76path8102"/></g></symbol><symbol viewBox="0 0 64 64" id="shape-shape_button"><title>shape_button</title><style>.s0{fill:none;stroke-width:1;}</style><metadata id="svgstore22ca76d383b89d55a16c955f8aea3ad9metadata3023"/><path id="svgstore22ca76d383b89d55a16c955f8aea3ad9path3816" d="m7.6949155 4.0338984a3.5762713 3.5254238 0 1 1-7.15254256 0 3.5762713 3.5254238 0 1 1 7.15254256 0zM-6.0000002 2.5084746a2.8135593 1.9661016 0 1 1-5.6271188 0 2.8135593 1.9661016 0 1 1 5.6271188 0zM-4.7457628 4.3559322a2.2542372 1.6440678 0 1 1-4.5084744 0 2.2542372 1.6440678 0 1 1 4.5084744 0zM-5.6610172 3.9661016a3.1525424 2.3728814 0 1 1-6.3050848 0 3.1525424 2.3728814 0 1 1 6.3050848 0zM-7.2542372 0.779661a5.3559322 4.7118645 0 1 1-10.7118648 0 5.3559322 4.7118645 0 1 1 10.7118648 0z" transform="translate(0,56)" class="s0"/><rect id="svgstore22ca76d383b89d55a16c955f8aea3ad9rect3835" width="61.935226" height="61.935223" x="1.0323879" y="1.0323893" style="fill:none;stroke-linejoin:round;stroke-width:2.1;stroke:#808080"/><g id="svgstore22ca76d383b89d55a16c955f8aea3ad9text8746" style="fill:#245299;font-family:Sans;font-size:34.8;letter-spacing:0;line-height:125;stroke-width:0.9;stroke:#245299;word-spacing:0"><path d="m13.948799 42.476147-2.840313 0 0-24.933528 3.061416 0 0 8.895113c1.29259-1.621399 2.942352-2.432106 4.949288-2.432125 1.111169 0.000019 2.162821 0.223955 3.154958 0.671811 0.992111 0.447891 1.808488 1.077181 2.449133 1.887873 0.640613 0.810723 1.142344 1.788674 1.505195 2.933856 0.362817 1.145208 0.544234 2.369773 0.544252 3.673699-0.000018 3.095437-0.765371 5.487874-2.296061 7.177318-1.530722 1.689448-3.36757 2.534171-5.510548 2.534171-2.13166 0-3.804098-0.890077-5.01732-2.670234zm-0.03402-9.167239c-0.000006 2.165675 0.294797 3.730397 0.884408 4.694171 0.963772 1.576065 2.267707 2.364095 3.911809 2.364093 1.337941 0.000002 2.494474-0.5811 3.469604-1.743306 0.975103-1.162199 1.462661-2.894165 1.462676-5.195902-0.000015-2.358413-0.46773-4.098882-1.403148-5.221414-0.935445-1.122504-2.066467-1.683763-3.393069-1.683779-1.337961 0.000016-2.494494 0.581117-3.469604 1.743306-0.975123 1.162217-1.462682 2.843159-1.462676 5.042831zM37.198548 39.737881l0.442204 2.70425c-0.86174 0.181417-1.632762 0.272126-2.313069 0.272126-1.111186 0-1.972917-0.175748-2.585195-0.527244-0.612287-0.351495-1.043153-0.813542-1.292598-1.386141-0.249451-0.572596-0.374176-1.777318-0.374173-3.614171l0-10.391804-2.245038 0 0-2.381101 2.245038 0 0-4.473068 3.044408-1.836849 0 6.309917 3.078423 0 0 2.381101-3.078423 0 0 10.561883c-0.000006 0.873074 0.05385 1.434333 0.161574 1.683778 0.107711 0.249452 0.283458 0.447877 0.527244 0.595276 0.243773 0.147404 0.592434 0.221104 1.045984 0.221102 0.340149 0.000002 0.788022-0.03968 1.343621-0.119055zM40.174925 42.476147l0-18.062351 2.755274 0 0 2.568187c1.326607-1.984233 3.242824-2.976357 5.748657-2.976376 1.088492 0.000019 2.08912 0.195609 3.001888 0.586772 0.912741 0.391198 1.595889 0.904268 2.049448 1.539211 0.453527 0.634976 0.771006 1.388991 0.95244 2.262046 0.113369 0.566942 0.170062 1.559067 0.170079 2.976376l0 11.106135-3.061416 0 0-10.98708c-0.000014-1.247231-0.119068-2.179828-0.357165-2.797793-0.238123-0.617938-0.660485-1.111166-1.267086-1.479684-0.606625-0.368489-1.31812-0.55274-2.134486-0.552756-1.303945 0.000016-2.429298 0.413873-3.376061 1.241574-0.946777 0.82773-1.420162 2.398121-1.420157 4.711178l0 9.864561z" id="svgstore22ca76d383b89d55a16c955f8aea3ad9path8751"/></g></symbol><symbol viewBox="0 0 64 64" id="shape-shape_checkbox"><title>shape_checkbox</title><metadata id="svgstore539810e513241d315d9b47463843ed89metadata3023"/><rect id="svgstore539810e513241d315d9b47463843ed89rect3027" width="61.9" height="61.9" x="1" y="1" style="fill:none;stroke-width:2.1;stroke:#808080"/><path d="m11.7 38 6.5 13.3 36.1-41.9 0 0" id="svgstore539810e513241d315d9b47463843ed89path3814" style="fill:none;stroke-width:6;stroke:#245299"/></symbol><symbol viewBox="0 0 64 64" id="shape-shape_div"><title>shape_div</title><style>.s0{fill:none;stroke-width:1;}</style><metadata id="svgstore46ceee46204095fb7b909a53b8511cf4metadata3023"/><path id="svgstore46ceee46204095fb7b909a53b8511cf4path3816" d="m7.6949155 4.0338984a3.5762713 3.5254238 0 1 1-7.15254256 0 3.5762713 3.5254238 0 1 1 7.15254256 0zM-6.0000002 2.5084746a2.8135593 1.9661016 0 1 1-5.6271188 0 2.8135593 1.9661016 0 1 1 5.6271188 0zM-4.7457628 4.3559322a2.2542372 1.6440678 0 1 1-4.5084744 0 2.2542372 1.6440678 0 1 1 4.5084744 0zM-5.6610172 3.9661016a3.1525424 2.3728814 0 1 1-6.3050848 0 3.1525424 2.3728814 0 1 1 6.3050848 0zM-7.2542372 0.779661a5.3559322 4.7118645 0 1 1-10.7118648 0 5.3559322 4.7118645 0 1 1 10.7118648 0z" transform="translate(0,56)" class="s0"/><rect id="svgstore46ceee46204095fb7b909a53b8511cf4rect3835" width="61.935226" height="61.935223" x="1.0323879" y="1.0323893" style="fill:none;stroke-dasharray:2.1;stroke-width:2.1;stroke:#808080"/><g id="svgstore46ceee46204095fb7b909a53b8511cf4text8195" style="fill:#245299;font-family:Sans;font-size:34.7;letter-spacing:0;line-height:125;stroke-width:0.9;stroke:#245299;word-spacing:0"><path d="m22.87611 42.350685 0-2.267782c-1.139546 1.782635-2.814995 2.673952-5.026354 2.673952-1.432885 0-2.750116-0.394887-3.951696-1.184662-1.20159-0.789774-2.132395-1.892637-2.792418-3.308593-0.660028-1.415949-0.990041-3.043448-0.99004-4.882502-0.000001-1.793907 0.298985-3.421406 0.896959-4.882502 0.59797-1.461069 1.494928-2.580856 2.690876-3.359364 1.195939-0.778475 2.532914-1.167721 4.010929-1.167739 1.08311 0.000018 2.047763 0.228489 2.893961 0.685412 0.846175 0.456958 1.534407 1.052109 2.064698 1.785455l0-8.901892 3.029351 0 0 24.810217zm-9.629614-8.969587c-0.000004 2.301636 0.485143 4.022216 1.455442 5.161743 0.970289 1.139536 2.115461 1.709301 3.435522 1.709299 1.331324 0.000002 2.462394-0.544378 3.393211-1.633142 0.930793-1.088756 1.396196-2.750103 1.39621-4.984044-0.000014-2.459574-0.473879-4.264772-1.421595-5.4156-0.947742-1.1508-2.115479-1.726207-3.503216-1.726222-1.353908 0.000015-2.484978 0.552857-3.393212 1.658527-0.908246 1.105698-1.362366 2.848843-1.362362 5.229439zM30.525645 21.043684l0-3.503216 3.046275 0 0 3.503216zm0 21.307001 0-17.973022 3.046275 0 0 17.973022zM43.218458 42.350685l-6.837195-17.973022 3.215512 0 3.858615 10.763505c0.417445 1.162103 0.801049 2.36933 1.150815 3.621682 0.270771-0.947725 0.648734-2.087257 1.133891-3.418597l3.994005-10.96659 3.130894 0-6.803348 17.973022z" id="svgstore46ceee46204095fb7b909a53b8511cf4path8200"/></g></symbol><symbol viewBox="0 0 64 64" id="shape-shape_email"><title>shape_email</title><metadata id="svgstore7fe845a9c3cf32945a92956a0d9a3c68metadata3023"/><rect id="svgstore7fe845a9c3cf32945a92956a0d9a3c68rect3027" width="61.926739" height="61.926739" x="1.0366302" y="1.0366306" style="fill:none;stroke-width:2.073;stroke:#808080"/><g transform="scale(1.0162965,0.98396481)" id="svgstore7fe845a9c3cf32945a92956a0d9a3c68text4075" style="fill:#245299;font-family:Sans;font-size:48.03121184999999800px;letter-spacing:0px;line-height:125%;stroke:#245299;word-spacing:0px"><path d="m33.447304 40.722995c-1.016312 1.17264-2.153769 2.114657-3.412374 2.826055-1.258653 0.7114-2.521191 1.0671-3.787618 1.0671-1.391548 0-2.743988-0.406514-4.057324-1.219543-1.313368-0.813026-2.380466-2.063838-3.201299-3.752438-0.820858-1.688591-1.23128-3.541355-1.231269-5.558299-0.000011-2.485978 0.637121-4.975875 1.911399-7.469698 1.274251-2.493788 2.857309-4.366096 4.74918-5.616931 1.891834-1.250789 3.728963-1.876194 5.511394-1.87622 1.360233 0.000026 2.65795 0.355725 3.893154 1.0671 1.235149 0.711423 2.298339 1.794157 3.189573 3.248204l0.797393-3.635174 4.198041 0-3.377195 15.736788c-0.469087 2.18893-0.703614 3.400653-0.703582 3.635175-0.000032 0.422154 0.160228 0.785672 0.480781 1.090553 0.320488 0.304889 0.707458 0.457332 1.160911 0.457328 0.828629 0.000004 1.915272-0.476868 3.259931-1.430617 1.78237-1.250806 3.193441-2.927676 4.233219-5.030613 1.039697-2.102917 1.559565-4.272293 1.559607-6.508135-0.000042-2.611053-0.668444-5.050135-2.005209-7.317255-1.336845-2.267072-3.330326-4.080749-5.980449-5.441036-2.650191-1.360228-5.577872-2.040357-8.783051-2.040388-3.658649 0.000031-7.000661 0.856055-10.026046 2.568075-3.025416 1.712077-5.370688 4.166795-7.035822 7.36416-1.665152 3.197409-2.497723 6.625414-2.497717 10.284027-0.000006 3.830621 0.832565 7.129637 2.497717 9.897056 1.665134 2.767422 4.072946 4.811717 7.223444 6.132892 3.150466 1.321165 6.641012 1.981749 10.471648 1.981756 4.096382-0.000007 7.528296-0.687953 10.295753-2.063841 2.767384-1.375897 4.839041-3.048858 6.214976-5.018886l4.244946 0c-0.797439 1.64169-2.165514 3.314651-4.104229 5.018886-1.938801 1.704226-4.244985 3.052757-6.918559 4.045598-2.673645 0.992823-5.894485 1.489239-9.662529 1.489249-3.471028-0.00001-6.672324-0.445612-9.603897-1.336807-2.931606-0.891212-5.42932-2.231925-7.49315-4.022144-2.063848-1.790229-3.619545-3.85016-4.667095-6.179798-1.3133571-2.95504-1.9700332-6.14461-1.9700306-9.568718-0.0000026-3.814964 0.7817547-7.450135 2.3452736-10.905524 1.907483-4.237102 4.616272-7.481394 8.126375-9.732887 3.510077-2.251429 7.766745-3.3771594 12.770017-3.3771944 3.87749 0.000035 7.360218 0.7935184 10.448196 2.3804534 3.087904 1.586999 5.523078 3.951815 7.305528 7.094454 1.516566 2.704905 2.27487 5.644312 2.274916 8.81823-0.000046 4.534209-1.594831 8.560258-4.784359 12.078161-2.845637 3.158304-5.957031 4.737453-9.334191 4.737454-1.078856-0.000001-1.950516-0.16417-2.61498-0.492508-0.664523-0.328338-1.153121-0.797392-1.465796-1.407164-0.203285-0.390877-0.351819-1.063188-0.445602-2.016936zM22.096177 34.367302c-0.000016 2.142025 0.508127 3.807168 1.524428 4.995434 1.016267 1.188276 2.181086 1.782412 3.494459 1.782408 0.875547 0.000004 1.79802-0.261885 2.767423-0.785666 0.969355-0.523774 1.895738-1.301622 2.77915-2.333548 0.883359-1.031913 1.606484-2.341357 2.169378-3.928334 0.562837-1.586957 0.844269-3.177833 0.844299-4.772633-0.00003-2.126364-0.527716-3.775872-1.58306-4.948528-1.0554-1.172616-2.341391-1.758933-3.857976-1.758955-1.000673 0.000022-1.942691 0.254093-2.826055 0.762214-0.883407 0.508163-1.739431 1.325099-2.568075 2.450811-0.828681 1.125749-1.493175 2.493824-1.993483 4.10423-0.500341 1.610434-0.750504 3.087955-0.750488 4.432567z" id="svgstore7fe845a9c3cf32945a92956a0d9a3c68path11917"/></g></symbol><symbol viewBox="0 0 64 64" id="shape-shape_footer"><title>shape_footer</title><style>.s0{fill:none;stroke-width:1;}</style><metadata id="svgstorea9cd560e6f2c648287dbc2068175eab7metadata3023"/><path id="svgstorea9cd560e6f2c648287dbc2068175eab7path3816" d="m7.7 4a3.6 3.5 0 1 1-7.2 0 3.6 3.5 0 1 1 7.2 0zM-6 2.5" transform="translate(0,56)" class="s0"/><path id="svgstorea9cd560e6f2c648287dbc2068175eab7path3818" d="m-6 2.5a2.8 2 0 1 1-5.6 0 2.8 2 0 1 1 5.6 0z" transform="translate(0,56)" class="s0"/><path id="svgstorea9cd560e6f2c648287dbc2068175eab7path3823" d="m-4.7 4.4a2.3 1.6 0 1 1-4.5 0 2.3 1.6 0 1 1 4.5 0z" transform="translate(0,56)" class="s0"/><path id="svgstorea9cd560e6f2c648287dbc2068175eab7path3825" d="m-5.7 4a3.2 2.4 0 1 1-6.3 0 3.2 2.4 0 1 1 6.3 0z" transform="translate(0,56)" class="s0"/><path id="svgstorea9cd560e6f2c648287dbc2068175eab7path3827" d="m-7.3 0.8a5.4 4.7 0 1 1-10.7 0 5.4 4.7 0 1 1 10.7 0z" transform="translate(0,56)" class="s0"/><rect id="svgstorea9cd560e6f2c648287dbc2068175eab7rect3835" width="61.9" height="61.9" x="1" y="1" style="fill:none;stroke-dasharray:2.1;stroke-width:2.1;stroke:#808080"/><g id="svgstorea9cd560e6f2c648287dbc2068175eab7text7535" transform="translate(0.25926961,0.51853921)" style="fill:#245299;font-family:Sans;font-size:35;letter-spacing:0;line-height:125;stroke-width:0.9;stroke:#245299;word-spacing:0"><g transform="scale(0.97614031,1.0244429)" id="svgstorea9cd560e6f2c648287dbc2068175eab7text7546" style="fill:#245299;font-family:Sans;font-size:33.6;line-height:125;stroke-width:0.7;stroke:#245299"><path d="m20.9 40.9 0-15.1-2.6 0 0-2.3 2.6 0 0-1.9c0-1.2 0.1-2 0.3-2.6 0.3-0.8 0.8-1.4 1.5-1.9 0.7-0.5 1.7-0.7 3-0.7 0.8 0 1.7 0.1 2.8 0.3l-0.4 2.6c-0.6-0.1-1.2-0.2-1.7-0.2-0.9 0-1.5 0.2-1.9 0.6-0.4 0.4-0.6 1.1-0.6 2.1l0 1.6 3.4 0 0 2.3-3.4 0 0 15.1zM35.9 38.3l0.4 2.6" id="svgstorea9cd560e6f2c648287dbc2068175eab7path7555"/><path d="m35.9 38.3 0.4 2.6c-0.8 0.2-1.6 0.3-2.2 0.3-1.1 0-1.9-0.2-2.5-0.5-0.6-0.3-1-0.8-1.2-1.3-0.2-0.6-0.4-1.7-0.4-3.5l0-10-2.2 0 0-2.3 2.2 0 0-4.3 2.9-1.8 0 6.1 3 0 0 2.3-3 0 0 10.2c0 0.8 0.1 1.4 0.2 1.6 0.1 0.2 0.3 0.4 0.5 0.6 0.2 0.1 0.6 0.2 1 0.2 0.3 0 0.80 1.3-0.1z" id="svgstorea9cd560e6f2c648287dbc2068175eab7path7557"/><path d="m38.8 40.9 0-17.4 2.7 0 0 2.6c0.7-1.2 1.3-2 1.9-2.4 0.6-0.4 1.2-0.6 1.9-0.6 1 0 2 0.3 3 1l-1 2.7C46.5 26.4 45.8 26.2 45 26.2c-0.6 0-1.2 0.2-1.7 0.6-0.5 0.4-0.9 0.9-1.1 1.6-0.3 1-0.5 2.2-0.5 3.4l0 9.1z" id="svgstorea9cd560e6f2c648287dbc2068175eab7path7559"/></g></g></symbol><symbol viewBox="0 0 64 64" id="shape-shape_form"><title>shape_form</title><style>.s0{fill:none;stroke-width:1;}</style><metadata id="svgstore31951c19e8e037246de9674407b599c8metadata3023"/><path id="svgstore31951c19e8e037246de9674407b599c8path3816" d="m7.7 4a3.6 3.5 0 1 1-7.2 0 3.6 3.5 0 1 1 7.2 0zM-6 2.5a2.8 2 0 1 1-5.6 0 2.8 2 0 1 1 5.6 0zM-4.7 4.4a2.3 1.6 0 1 1-4.5 0 2.3 1.6 0 1 1 4.5 0zM-5.7 4a3.2 2.4 0 1 1-6.3 0 3.2 2.4 0 1 1 6.3 0zM-7.3 0.8a5.4 4.7 0 1 1-10.7 0 5.4 4.7 0 1 1 10.7 0z" transform="translate(0,56)" class="s0"/><rect id="svgstore31951c19e8e037246de9674407b599c8rect3835" width="61.9" height="61.9" x="1" y="1" style="fill:none;stroke-dasharray:2.1;stroke-width:2.1;stroke:#808080"/><g id="svgstore31951c19e8e037246de9674407b599c8text8108" style="fill:#245299;font-family:Sans;font-size:34.3;letter-spacing:0;line-height:125;stroke-width:0.9;stroke:#245299;word-spacing:0"><path d="m10.4 42.4 0-15.5-2.7 0 0-2.3 2.7 0 0-1.9c0-1.2 0.1-2.1 0.3-2.7 0.3-0.8 0.8-1.4 1.5-1.9 0.7-0.5 1.8-0.7 3.1-0.7 0.8 0 1.8 0.1 2.8 0.3l-0.5 2.6c-0.6-0.1-1.2-0.2-1.8-0.2-0.9 0-1.6 0.2-1.9 0.6-0.4 0.4-0.6 1.1-0.6 2.2l0 1.6 3.5 0 0 2.3-3.5 0 0 15.5zM19.1 42.4l0-17.8 2.7 0 0 2.7c0.7-1.3 1.3-2.1 1.9-2.5 0.6-0.4 1.2-0.6 1.9-0.6 1 0 2.1 0.3 3.1 1l-1 2.8c-0.7-0.4-1.5-0.7-2.2-0.7-0.7 0-1.3 0.2-1.8 0.6-0.5 0.4-0.9 0.9-1.1 1.7-0.3 1.1-0.5 2.2-0.5 3.5l0 9.3zM30.6 42.4l0-17.8 2.7 0 0 2.5c0.6-0.9 1.3-1.6 2.2-2.1 0.9-0.5 2-0.8 3.2-0.8 1.3 0 2.4 0.3 3.2 0.8 0.8 0.5 1.4 1.3 1.8 2.3 1.4-2.1 3.2-3.1 5.5-3.1 1.8 0 3.1 0.5 4.1 1.5 0.9 1 1.4 2.5 1.4 4.5l0 12.2-3 0 0-11.2c0-1.2-0.1-2.1-0.3-2.6-0.2-0.5-0.6-1-1.1-1.3-0.5-0.3-1.1-0.5-1.8-0.5-1.3 0-2.3 0.4-3.1 1.2-0.8 0.8-1.2 2.2-1.2 4l0 10.3-3 0 0-11.6c0-1.3-0.2-2.3-0.7-3-0.5-0.7-1.3-1-2.4-1-0.8 0-1.6 0.2-2.4 0.7-0.7 0.4-1.2 1.1-1.6 2-0.3 0.9-0.5 2.1-0.5 3.7l0 9.2z" id="svgstore31951c19e8e037246de9674407b599c8path8113"/></g></symbol><symbol viewBox="0 0 64 64" id="shape-shape_header"><title>shape_header</title><style>.s0{fill:none;stroke-width:1;}.s1{fill:#245299;stroke:#245299;}</style><metadata id="svgstore2d16d1529163c760fadc7a6395592cd7metadata3023"/><path id="svgstore2d16d1529163c760fadc7a6395592cd7path3816" d="m7.6949155 4.0338984a3.5762713 3.5254238 0 1 1-7.15254256 0 3.5762713 3.5254238 0 1 1 7.15254256 0zM-6.0000002 2.5084746a2.8135593 1.9661016 0 1 1-5.6271188 0 2.8135593 1.9661016 0 1 1 5.6271188 0zM-4.7457628 4.3559322a2.2542372 1.6440678 0 1 1-4.5084744 0 2.2542372 1.6440678 0 1 1 4.5084744 0zM-5.6610172 3.9661016a3.1525424 2.3728814 0 1 1-6.3050848 0 3.1525424 2.3728814 0 1 1 6.3050848 0zM-7.2542372 0.779661a5.3559322 4.7118645 0 1 1-10.7118648 0 5.3559322 4.7118645 0 1 1 10.7118648 0z" transform="translate(0,56)" class="s0"/><rect id="svgstore2d16d1529163c760fadc7a6395592cd7rect3835" width="61.935226" height="61.935223" x="1.0323879" y="1.0323893" style="fill:none;stroke-dasharray:2.1;stroke-width:2.1;stroke:#808080"/><g id="svgstore2d16d1529163c760fadc7a6395592cd7text7535" transform="translate(0.25926961,0.51853921)" style="fill:#245299;font-family:Sans;font-size:35;letter-spacing:0;line-height:125;stroke-width:0.9;stroke:#245299;word-spacing:0"><path d="m7.8889412 42.06208 0-25.036207 3.0740228 0 0 8.982977c1.434537-1.662231 3.244793-2.493355 5.430773-2.493374 1.34345 0.000019 2.510439 0.264726 3.500971 0.794123 0.990503 0.529432 1.699235 1.260935 2.126199 2.194511 0.426931 0.933606 0.640404 2.288452 0.640421 4.064541l0 11.493429-3.074022 0 0-11.493429c-0.000014-1.536998-0.333033-2.6556-0.999058-3.355808-0.66605-0.700179-1.608181-1.050276-2.826393-1.050291-0.910831 0.000015-1.767572 0.23626-2.570225 0.708733-0.802668 0.472503-1.374777 1.112924-1.716329 1.921264-0.341564 0.808366-0.512342 1.924122-0.512337 3.347269l0 9.922262zM39.124428 42.06208l0-2.288439c-1.149925 1.798873-2.840636 2.698309-5.072137 2.698309-1.445937 0-2.775166-0.398484-3.987691-1.195453-1.212535-0.796967-2.151819-1.909876-2.817854-3.33873-0.66604-1.428846-0.999059-3.07117-0.999058-4.926976-0.000001-1.810247 0.301709-3.45257 0.905129-4.926975 0.603417-1.474377 1.508545-2.604364 2.715387-3.389964 1.206833-0.785566 2.555986-1.178357 4.047463-1.178376 1.092976 0.000019 2.066416 0.23057 2.920322 0.691656 0.853883 0.46112 1.548383 1.061693 2.083504 1.801718l0-8.982977 3.056945 0 0 25.036207zm-9.717327-9.051289c-0.000005 2.322602 0.489561 4.058854 1.468699 5.208761 0.979127 1.149915 2.134731 1.72487 3.466815 1.724868 1.343451 0.000002 2.484823-0.549336 3.42412-1.648017 0.939271-1.098674 1.408913-2.775153 1.408927-5.029443-0.000014-2.481978-0.478195-4.303619-1.434544-5.46493-0.956374-1.161282-2.134749-1.74193-3.535126-1.741946-1.36624 0.000016-2.507612 0.557894-3.42412 1.673635-0.916519 1.115769-1.374776 2.874792-1.374771 5.277072zM46.792407 42.06208l0-18.136734 2.766621 0 0 2.749543c0.705881-1.286519 1.357687-2.134721 1.95542-2.544608 0.597719-0.409851 1.255218-0.614786 1.972498-0.614805 1.036049 0.000019 2.089186 0.330191 3.159412 0.990519l-1.05883 2.85201c-0.751438-0.44401-1.502865-0.666023-2.254283-0.666038-0.671739 0.000015-1.275158 0.202103-1.810258 0.606265-0.535114 0.404192-0.91652 0.964916-1.14422 1.682174-0.341563 1.092998-0.512342 2.28845-0.512337 3.58636l0 9.495314z" id="svgstore2d16d1529163c760fadc7a6395592cd7path7540" class="s1"/></g></symbol><symbol viewBox="0 0 64 64" id="shape-shape_password"><title>shape_password</title><metadata id="svgstore9e0f80bf5a23c2e5da8b97776420ebe9metadata3023"/><rect id="svgstore9e0f80bf5a23c2e5da8b97776420ebe9rect3027" width="61.93" height="61.93" x="1.04" y="1.04" style="fill:none;stroke-width:2.07;stroke:#808080"/><g transform="scale(1.0162965,0.98396481)" id="svgstore9e0f80bf5a23c2e5da8b97776420ebe9text4075" style="fill:#245299;font-family:Sans;font-size:146.64;letter-spacing:0;line-height:125;word-spacing:0"><path d="M7.84 30.9 11.13 20.73c7.59 2.67 13.1 4.99 16.54 6.95-0.91-8.64-1.38-14.58-1.43-17.83l10.38 0C36.48 14.57 35.93 20.49 34.98 27.6 39.89 25.12 45.53 22.83 51.88 20.73l3.29 10.17c-6.06 2-12.01 3.34-17.83 4.01 2.91 2.53 7.02 7.04 12.32 13.53l-8.59 6.09c-2.77-3.77-6.04-8.9-9.81-15.39-3.53 6.73-6.64 11.86-9.31 15.39l-8.45-6.09C19.03 41.61 23 37.1 25.38 34.91 19.22 33.71 13.38 32.38 7.84 30.9z" id="svgstore9e0f80bf5a23c2e5da8b97776420ebe9path10326"/></g></symbol><symbol viewBox="0 0 64 64" id="shape-shape_radio"><title>shape_radio</title><style>.s0{fill:none;stroke-width:1;}</style><metadata id="svgstored90e2ff4ad2889c52b2174db1b7a3698metadata3023"/><path id="svgstored90e2ff4ad2889c52b2174db1b7a3698path3816" d="m7.69 4.03a3.58 3.53 0 1 1-7.15 0 3.58 3.53 0 1 1 7.15 0zM-6 2.51a2.81 1.97 0 1 1-5.63 0 2.81 1.97 0 1 1 5.63 0zM-4.75 4.36a2.25 1.64 0 1 1-4.51 0 2.25 1.64 0 1 1 4.51 0zM-5.66 3.97a3.15 2.37 0 1 1-6.31 0 3.15 2.37 0 1 1 6.31 0zM-7.25 0.78a5.36 4.71 0 1 1-10.71 0 5.36 4.71 0 1 1 10.71 0z" transform="translate(0,56)" class="s0"/><path id="svgstored90e2ff4ad2889c52b2174db1b7a3698path3833" d="m7.56 4.12a3.51 3.47 0 1 1-7.02 0 3.51 3.47 0 1 1 7.02 0z" transform="matrix(6.6198562,0,0,6.6844403,5.1839719,4.4691683)" style="fill:none;stroke-width:0.23;stroke:#808080"/><path transform="matrix(4.8084399,0,0,4.8553515,12.521743,12.002535)" d="m7.56 4.12a3.51 3.47 0 1 1-7.02 0 3.51 3.47 0 1 1 7.02 0z" id="svgstored90e2ff4ad2889c52b2174db1b7a3698path9065" style="fill:#245299;stroke-width:0.47;stroke:#245299"/></symbol><symbol viewBox="0 0 64 64" id="shape-shape_section"><title>shape_section</title><style>.s0{fill:none;stroke-width:1;}</style><metadata id="svgstore3b59adb41db04271e12fadb10392e318metadata3023"/><path id="svgstore3b59adb41db04271e12fadb10392e318path3816" d="m7.6949155 4.0338984a3.5762713 3.5254238 0 1 1-7.15254256 0 3.5762713 3.5254238 0 1 1 7.15254256 0zM-6.0000002 2.5084746a2.8135593 1.9661016 0 1 1-5.6271188 0 2.8135593 1.9661016 0 1 1 5.6271188 0zM-4.7457628 4.3559322a2.2542372 1.6440678 0 1 1-4.5084744 0 2.2542372 1.6440678 0 1 1 4.5084744 0zM-5.6610172 3.9661016a3.1525424 2.3728814 0 1 1-6.3050848 0 3.1525424 2.3728814 0 1 1 6.3050848 0zM-7.2542372 0.779661a5.3559322 4.7118645 0 1 1-10.7118648 0 5.3559322 4.7118645 0 1 1 10.7118648 0z" transform="translate(0,56)" class="s0"/><rect id="svgstore3b59adb41db04271e12fadb10392e318rect3835" width="61.935226" height="61.935223" x="1.0323879" y="1.0323893" style="fill:none;stroke-dasharray:2.1;stroke-width:2.1;stroke:#808080"/><g id="svgstore3b59adb41db04271e12fadb10392e318text8173" style="fill:#245299;font-family:Sans;font-size:34.3;letter-spacing:0;line-height:125;stroke-width:0.9;stroke:#245299;word-spacing:0"><path d="M6.214776 36.793848 9.1945463 36.32512c0.1673987 1.194144 0.6333361 2.109279 1.3978137 2.745406 0.764467 0.636133 1.833054 0.954198 3.205764 0.954196 1.383854 0.000002 2.41059-0.281792 3.080212-0.845384 0.669599-0.563586 1.004404-1.224827 1.004417-1.983724C17.88274 36.514848 17.586996 35.97916 16.995518 35.588547 16.58258 35.320709 15.555843 34.980324 13.915306 34.56739 11.705582 34.009389 10.173848 33.526711 9.3200985 33.119355 8.4663407 32.712018 7.8190504 32.148429 7.3782256 31.428587 6.9373964 30.708766 6.7169829 29.913603 6.7169844 29.043097c-0.0000015-0.79236 0.1813514-1.526142 0.5440592-2.201348 0.3627037-0.675175 0.8565416-1.235974 1.4815151-1.682398 0.4687239-0.345949 1.107644-0.638903 1.9167623-0.878865 0.809107-0.239926 1.676811-0.359898 2.603114-0.359916 1.395014 0.000018 2.619844 0.200901 3.674492 0.60265 1.054625 0.401784 1.833048 0.945843 2.33527 1.632178 0.502194 0.686367 0.848159 1.604291 1.037897 2.753776l-2.94629 0.401767c-0.133934-0.915122-0.52175-1.629373-1.163449-2.142756-0.641721-0.513353-1.548486-0.770037-2.720296-0.770053-1.383871 0.000016-2.371546 0.228799-2.96303 0.686351-0.5914951 0.457583-0.8872398 0.993271-0.8872353 1.607068-0.0000045 0.390619 0.1227575 0.742165 0.3682862 1.054637 0.2455191 0.323658 0.6305451 0.591502 1.1550791 0.803534 0.301319 0.111613 1.188553 0.368297 2.661705 0.770053 2.131586 0.56918 3.618679 1.035117 4.461286 1.397814 0.84258 0.362715 1.503821 0.890033 1.983723 1.581956 0.479873 0.691939 0.719817 1.551273 0.719833 2.578004-0.000016 1.004421-0.292971 1.950246-0.878865 2.837478-0.585925 0.887236-1.431308 1.573587-2.536153 2.059055-1.10487 0.485468-2.35481 0.728202-3.749824 0.728202-2.310165 0-4.070683-0.479888-5.2815588-1.439664C7.3224225 40.102845 6.5495802 38.679923 6.214776 36.793848zM36.732312 36.37534l3.113693 0.385027c-0.491066 1.819114-1.40062 3.230877-2.728667 4.235292-1.328076 1.004417-3.024423 1.506625-5.089046 1.506625-2.600331 0-4.662174-0.800743-6.185534-2.402231-1.523368-1.601483-2.28505-3.847469-2.285049-6.737963-0.000001-2.990919 0.770051-5.312236 2.310159-6.963958 1.540101-1.651691 3.537773-2.477544 5.993022-2.477562 2.377108 0.000018 4.318979 0.809131 5.825618 2.427341 1.506609 1.618241 2.259921 3.894918 2.259938 6.830035-0.000017 0.178572-0.0056 0.446416-0.01674 0.803534l-13.258304 0c0.111597 1.953039 0.664026 3.448503 1.657288 4.486396 0.99325 1.0379 2.232029 1.556848 3.716343 1.556846 1.104847 0.000002 2.047882-0.290162 2.829107-0.870495 0.7812-0.580326 1.40059-1.506621 1.858172-2.778887zm-9.893507-4.871422 9.926987 0c-0.133936-1.495453-0.513382-2.617051-1.138339-3.364797-0.959788-1.160644-2.204148-1.740973-3.733083-1.740989-1.383872 0.000016-2.54732 0.463163-3.490349 1.389443-0.943041 0.926309-1.464779 2.165089-1.565216 3.716343zM55.247067 35.588547l2.963031 0.385027c-0.323662 2.042318-1.152306 3.641014-2.485932 4.796091-1.333656 1.155079-2.971412 1.732619-4.913274 1.732619-2.432928 0-4.388749-0.795163-5.867469-2.38549-1.478727-1.590324-2.218089-3.86979-2.218087-6.838406-0.000002-1.919542 0.318064-3.599148 0.954196-5.038825 0.636128-1.439649 1.604273-2.519396 2.904439-3.239245 1.300156-0.719814 2.714708-1.07973 4.243662-1.079748 1.930701 0.000018 3.509866 0.488276 4.7375 1.464775 1.227605 0.976532 2.014398 2.363184 2.36038 4.15996l-2.92955 0.451988c-0.279018-1.194127-0.772856-2.092522-1.481515-2.695186-0.708683-0.602635-1.565227-0.903959-2.569633-0.903975-1.517794 0.000016-2.750994 0.544074-3.699603 1.632177-0.948621 1.088132-1.422928 2.809589-1.422924 5.164378-0.000004 2.388287 0.457563 4.123694 1.372703 5.206228 0.915129 1.082541 2.109268 1.623809 3.582421 1.623807 1.182969 0.000002 2.170645-0.362704 2.96303-1.088118 0.79236-0.725409 1.294568-1.841426 1.506625-3.348057z" id="svgstore3b59adb41db04271e12fadb10392e318path8178"/></g></symbol><symbol viewBox="0 0 64 64" id="shape-shape_span"><title>shape_span</title><style>.s0{fill:none;stroke-width:1;}</style><metadata id="svgstore36dbe54c8c46652c71f5d98a77170630metadata3023"/><path id="svgstore36dbe54c8c46652c71f5d98a77170630path3816" d="m7.6949155 4.0338984a3.5762713 3.5254238 0 1 1-7.15254256 0 3.5762713 3.5254238 0 1 1 7.15254256 0zM-6.0000002 2.5084746a2.8135593 1.9661016 0 1 1-5.6271188 0 2.8135593 1.9661016 0 1 1 5.6271188 0zM-4.7457628 4.3559322a2.2542372 1.6440678 0 1 1-4.5084744 0 2.2542372 1.6440678 0 1 1 4.5084744 0zM-5.6610172 3.9661016a3.1525424 2.3728814 0 1 1-6.3050848 0 3.1525424 2.3728814 0 1 1 6.3050848 0zM-7.2542372 0.779661a5.3559322 4.7118645 0 1 1-10.7118648 0 5.3559322 4.7118645 0 1 1 10.7118648 0z" transform="translate(0,56)" class="s0"/><rect id="svgstore36dbe54c8c46652c71f5d98a77170630rect3835" width="61.935226" height="61.935223" x="1.0323879" y="1.0323893" style="fill:none;stroke-dasharray:2.1;stroke-width:2.1;stroke:#808080"/><g id="svgstore36dbe54c8c46652c71f5d98a77170630text8184" transform="translate(-0.25926961,-0.140425)" style="fill:#245299;font-family:Sans;font-size:34.5;letter-spacing:0;line-height:125;stroke-width:0.9;stroke:#245299;word-spacing:0"><path d="m5.9581864 37.136217 2.9983863-0.471656c0.1684444 1.201605 0.6372927 2.122457 1.4065463 2.762558 0.769243 0.640107 1.844506 0.960159 3.225792 0.960157 1.392499 0.000002 2.42565-0.283552 3.099456-0.850665 0.673782-0.567107 1.010679-1.232479 1.010692-1.996117-0.000013-0.685019-0.297606-1.224054-0.892778-1.617107C16.390762 35.653876 15.357612 35.311364 13.706825 34.89585 11.483296 34.334362 9.9419923 33.848669 9.0829092 33.438769 8.2238176 33.028887 7.5724834 32.461777 7.1289046 31.737437 6.6853214 31.013119 6.4635308 30.212989 6.4635324 29.337044c-0.0000016-0.79731 0.1824843-1.535676 0.5474582-2.2151 0.3649696-0.679394 0.8618927-1.243696 1.4907707-1.692909 0.4716522-0.34811 1.1145639-0.642895 1.9287377-0.884356 0.814162-0.241425 1.687286-0.362146 2.619376-0.362164 1.40373 0.000018 2.636211 0.202156 3.697449 0.606415 1.061213 0.404294 1.844499 0.951751 2.349858 1.642374 0.505332 0.690655 0.853459 1.614314 1.044382 2.770981l-2.964696 0.404277c-0.134771-0.920839-0.52501-1.639553-1.170719-2.156143-0.64573-0.516561-1.558159-0.774848-2.73729-0.774864-1.392516 0.000016-2.386363 0.230229-2.981542 0.690639-0.5951899 0.460441-0.8927823 0.999477-0.8927778 1.617108-0.0000045 0.39306 0.1235244 0.746801 0.3705871 1.061226 0.2470527 0.32568 0.6344847 0.595197 1.1622957 0.808554 0.303201 0.11231 1.195978 0.370598 2.678334 0.774864 2.144902 0.572735 3.641286 1.041584 4.489157 1.406546 0.847844 0.364981 1.513216 0.895594 1.996117 1.59184 0.48287 0.696262 0.724313 1.560964 0.724329 2.594109-0.000016 1.010697-0.294801 1.962431-0.884356 2.855205-0.589584 0.89278-1.440249 1.583419-2.551997 2.071919-1.111773 0.488501-2.369521 0.732751-3.77325 0.732752-2.324598-0.000001-4.0961148-0.482886-5.3145556-1.448659-1.2184475-0.96577-1.9961181-2.397582-2.333014-4.295441zM24.42016 49.331901l0-24.74511 2.762559 0 0 2.324592c0.651329-0.909606 1.386887-1.591823 2.206677-2.046651 0.819776-0.454794 1.813622-0.682199 2.981542-0.682217 1.527256 0.000018 2.874844 0.393064 4.042768 1.17914 1.167895 0.78611 2.049442 1.895063 2.644644 3.326861 0.595167 1.431826 0.89276 3.001205 0.892778 4.708141-0.000018 1.830482-0.328493 3.47847-0.985425 4.943968-0.656966 1.465506-1.611508 2.588496-2.863627 3.368973-1.252148 0.780479-2.568854 1.170718-3.950122 1.170719-1.010701-0.000001-1.917515-0.213369-2.720446-0.640105-0.802945-0.426736-1.462701-0.965771-1.979272-1.617107l0 8.708796zm2.745714-15.699416c-0.000005 2.302138 0.466036 4.003468 1.398124 5.103994 0.932075 1.100534 2.06068 1.650799 3.385818 1.650797 1.347578 0.000002 2.50145-0.569915 3.46162-1.709754 0.960143-1.139831 1.440221-2.905732 1.440236-5.29771-0.000015-2.279661-0.468863-3.986606-1.406546-5.12084-0.93771-1.134205-2.057893-1.701315-3.360551-1.701331-1.291449 0.000016-2.434091 0.603623-3.427931 1.810823-0.993852 1.207228-1.490775 2.9619-1.49077 5.264021zM43.62331 42.47604l0-17.889249 2.728869 0 0 2.543575c1.313893-1.965217 3.211746-2.947833 5.693565-2.947851 1.078059 0.000018 2.069098 0.193734 2.973119 0.581147 0.903993 0.38745 1.580594 0.895603 2.029806 1.524461 0.44918 0.62889 0.763618 1.375679 0.943313 2.240367 0.112282 0.561509 0.168431 1.544125 0.168448 2.947852l0 10.999698-3.032076 0 0-10.881784c-0.000014-1.235278-0.117928-2.158937-0.353742-2.770981-0.235841-0.612016-0.654155-1.100516-1.254943-1.465503-0.600811-0.364957-1.305488-0.547443-2.11403-0.547458-1.291449 0.000015-2.406016 0.409907-3.343706 1.229675-0.937704 0.819797-1.406552 2.375138-1.406547 4.666028l0 9.770023z" id="svgstore36dbe54c8c46652c71f5d98a77170630path8189"/></g></symbol><symbol viewBox="0 0 64 64" id="shape-shape_table"><title>shape_table</title><style>.s0{fill:none;stroke-width:1;}</style><metadata id="svgstored8bda386a4bb8abde87ea6023a389eefmetadata3023"/><path id="svgstored8bda386a4bb8abde87ea6023a389eefpath3816" d="m7.6949155 4.0338984a3.5762713 3.5254238 0 1 1-7.15254256 0 3.5762713 3.5254238 0 1 1 7.15254256 0zM-6.0000002 2.5084746a2.8135593 1.9661016 0 1 1-5.6271188 0 2.8135593 1.9661016 0 1 1 5.6271188 0zM-4.7457628 4.3559322a2.2542372 1.6440678 0 1 1-4.5084744 0 2.2542372 1.6440678 0 1 1 4.5084744 0zM-5.6610172 3.9661016a3.1525424 2.3728814 0 1 1-6.3050848 0 3.1525424 2.3728814 0 1 1 6.3050848 0zM-7.2542372 0.779661a5.3559322 4.7118645 0 1 1-10.7118648 0 5.3559322 4.7118645 0 1 1 10.7118648 0z" transform="translate(0,56)" class="s0"/><rect id="svgstored8bda386a4bb8abde87ea6023a389eefrect3835" width="61.935226" height="61.935223" x="1.0323879" y="1.0323893" style="fill:none;stroke-dasharray:2.1;stroke-width:2.1;stroke:#808080"/><g transform="scale(1.0528346,0.94981678)" id="svgstored8bda386a4bb8abde87ea6023a389eeftext8141" style="fill:#245299;font-family:Sans;font-size:36.4;letter-spacing:0;line-height:125;stroke-width:0.9;stroke:#245299;word-spacing:0"><path d="m19.349947 41.702104 0.462454 2.828084c-0.901201 0.189725-1.70753 0.284587-2.41899 0.284587-1.16207 0-2.063261-0.183796-2.703577-0.551387-0.640325-0.367591-1.090921-0.850796-1.351788-1.449615-0.260875-0.598817-0.391311-1.858706-0.391308-3.779672l0-10.867669-2.347843 0 0-2.490136 2.347843 0 0-4.6779 3.183818-1.920963 0 6.598863 3.219391 0 0 2.490136-3.219391 0 0 11.045536c-0.000006 0.913054 0.05632 1.500014 0.168974 1.760882 0.112642 0.260875 0.296438 0.468386 0.551387 0.622534 0.254935 0.154154 0.619562 0.23123 1.093882 0.231227 0.355725 0.000003 0.824107-0.0415 1.405148-0.124507zM25.415209 44.565762l-2.970378 0 0-26.075289 3.201605 0 0 9.302439c1.351781-1.695646 3.077089-2.543478 5.175927-2.543497 1.162052 0.000019 2.261861 0.234211 3.299431 0.702574 1.037542 0.468401 1.891302 1.126508 2.561283 1.974323 0.669948 0.847848 1.194655 1.870582 1.574123 3.068204 0.37943 1.19765 0.569155 2.47829 0.569174 3.841926-0.000019 3.237184-0.800419 5.739176-2.401204 7.505983-1.600817 1.766812-3.521777 2.650217-5.762887 2.650217-2.229274 0-3.978297-0.930836-5.247074-2.79251zm-0.03557-9.587027c-0.000005 2.264846 0.308297 3.90122 0.924908 4.909127 1.007905 1.648236 2.37155 2.472352 4.090939 2.47235 1.399208 0.000002 2.608702-0.607709 3.628485-1.823136 1.019755-1.215419 1.52964-3.026695 1.529656-5.433834-0.000016-2.466409-0.489149-4.286579-1.467402-5.460514-0.978282-1.173906-2.161095-1.760866-3.548445-1.760883-1.399229 0.000017-2.608723 0.607728-3.628485 1.823136-1.019776 1.215438-1.529661 2.973354-1.529656 5.273754zM42.668298 44.565762l0-26.075289 3.201604 0 0 26.075289z" id="svgstored8bda386a4bb8abde87ea6023a389eefpath8148"/></g></symbol><symbol viewBox="0 0 64 64" id="shape-shape_textarea"><title>shape_textarea</title><metadata id="svgstoreb15898b80da58fbf1e9a83f08d68574cmetadata3023"/><rect id="svgstoreb15898b80da58fbf1e9a83f08d68574crect3027" width="61.93" height="61.93" x="1.04" y="1.04" style="fill:none;stroke-width:2.07;stroke:#808080"/><path d="m63.54 62.73 0-10-9.52 10.72 9.4 0z" id="svgstoreb15898b80da58fbf1e9a83f08d68574cpath3812" style="fill:none;stroke-width:0.82;stroke:#808080"/><path id="svgstoreb15898b80da58fbf1e9a83f08d68574cpath11182" d="m63.44 62.56 0-14.49-13.79 15.54 13.62 0z" style="fill:none;stroke-width:0.8;stroke:#808080"/><path d="m63.44 62.48 0-19.04-18.12 20.41 17.89 0z" id="svgstoreb15898b80da58fbf1e9a83f08d68574cpath11184" style="fill:none;stroke-width:0.76;stroke:#808080"/></symbol><symbol viewBox="0 0 64 64" id="shape-shape_textbox"><title>shape_textbox</title><style>.s0{fill:none;stroke-width:3.3;stroke:#245299;}</style><metadata id="svgstorefa211d7de769e7c86ebdce9c3b3de82ametadata3023"/><rect id="svgstorefa211d7de769e7c86ebdce9c3b3de82arect3027" width="61.93" height="61.93" x="1.04" y="1.04" style="fill:none;stroke-width:2.1;stroke:#808080"/><g id="svgstorefa211d7de769e7c86ebdce9c3b3de82ag11911" transform="matrix(0.84982665,0,0,1,1.4170221,0)"><path id="svgstorefa211d7de769e7c86ebdce9c3b3de82apath3803" d="m22.55 13.32 0 38.02 0 0M9.44 10.42l10.59 0 2.61 3.3 2.61-3.3 10.59 0M9.44 53.33l10.59 0 2.61-3.3 2.61 3.3 10.59 0" class="s0"/></g></symbol></svg>